<svg id="Grupo_242" data-name="Grupo 242" xmlns="http://www.w3.org/2000/svg" xmlns:xlink="http://www.w3.org/1999/xlink" width="251.141" height="251.33" viewBox="0 0 251.141 251.33">
  <defs>
    <clipPath id="clip-path">
      <rect id="Retângulo_95" data-name="Retângulo 95" width="251.141" height="251.33" fill="none"/>
    </clipPath>
  </defs>
  <g id="Grupo_241" data-name="Grupo 241" clip-path="url(#clip-path)">
    <path id="Caminho_134" data-name="Caminho 134" d="M161.66,134.711a2.409,2.409,0,0,1,.579-1.187l.011-.011-7.027-4.037a1.994,1.994,0,0,1-.644,1.2Z" transform="translate(-72.318 -60.574)" fill="#161615"/>
    <path id="Caminho_135" data-name="Caminho 135" d="M181.284,129.911a1.5,1.5,0,0,1-.137-.373l-6.76,4.008.01.007a2.005,2.005,0,0,1,.517.887c.014.1.028.21.043.315l6.872-4.075a1.732,1.732,0,0,1-.128-.122,1.511,1.511,0,0,1-.416-.647" transform="translate(-81.584 -60.602)" fill="#161615"/>
    <path id="Caminho_136" data-name="Caminho 136" d="M171.794,151.45v-8.157a1.521,1.521,0,0,1-.671.127h-.048a2.013,2.013,0,0,1-.627-.1l-.02,8.145c.057-.021.113-.044.173-.06l.535-.072a1.51,1.51,0,0,1,.659.122" transform="translate(-79.731 -67.037)" fill="#161615"/>
    <path id="Caminho_137" data-name="Caminho 137" d="M155.092,122.4l8.583-5.3,8.127,5.017a2.007,2.007,0,0,1,.239-.661l.314-.407a2,2,0,0,1,.4-.308l-8.471-5.188a1.218,1.218,0,0,0-1.217,0l-8.651,5.3a2.056,2.056,0,0,1,.677,1.547" transform="translate(-72.24 -53.982)" fill="#161615"/>
    <path id="Caminho_138" data-name="Caminho 138" d="M183.1,132.31a1.516,1.516,0,0,1-.643-.115v9.448l-8.112,5.008a2.121,2.121,0,0,1,.545,1.592l8.628-5.284a1.218,1.218,0,0,0,.609-1.054v-9.878a2.033,2.033,0,0,1-.493.211Z" transform="translate(-81.565 -61.767)" fill="#161615"/>
    <path id="Caminho_139" data-name="Caminho 139" d="M152.572,131.831a1.951,1.951,0,0,1-1.065.292,2.159,2.159,0,0,1-.606-.085v9.775a1.218,1.218,0,0,0,.609,1.054l8.539,5.23a2.1,2.1,0,0,1,.581-1.571l-8.058-4.975Z" transform="translate(-70.597 -61.675)" fill="#161615"/>
    <path id="Caminho_140" data-name="Caminho 140" d="M157.417,158.85a1.135,1.135,0,0,0-.773-.442l-.431-.7-2.289-1.4,1.617,2.64a1.136,1.136,0,1,0,1.971,1.128h2.565l-2-1.227Z" transform="translate(-72.011 -73.127)" fill="#161615"/>
    <path id="Caminho_141" data-name="Caminho 141" d="M182.008,157.71l-.428.694a1.132,1.132,0,0,0-.811.445h-.62l-2,1.227h2.528a1.136,1.136,0,1,0,1.99-1.1l1.635-2.67Z" transform="translate(-83.342 -73.126)" fill="#161615"/>
    <path id="Caminho_142" data-name="Caminho 142" d="M156.214,118.229l.353-.572a1.136,1.136,0,0,0,.93-.567h.576l2-1.227h-2.641a1.136,1.136,0,0,0-1.931,1.186l-1.581,2.582Z" transform="translate(-72.011 -53.982)" fill="#161615"/>
    <path id="Caminho_143" data-name="Caminho 143" d="M180.688,117.09a1.134,1.134,0,0,0,.968.569l.352.57,2.289,1.4-1.6-2.615a1.135,1.135,0,0,0-1.947-1.153h-2.6l2,1.227Z" transform="translate(-83.342 -53.982)" fill="#161615"/>
    <path id="Caminho_144" data-name="Caminho 144" d="M152.329,127.82a1.042,1.042,0,1,0-1.042,1.042,1.042,1.042,0,0,0,1.042-1.042" transform="translate(-70.29 -59.311)" fill="#161615"/>
    <path id="Caminho_145" data-name="Caminho 145" d="M190.087,126.778a1.042,1.042,0,1,0,1.042,1.042,1.042,1.042,0,0,0-1.042-1.042" transform="translate(-88.442 -59.311)" fill="#161615"/>
    <path id="Caminho_146" data-name="Caminho 146" d="M170.865,160.238a1.042,1.042,0,1,0,1.042,1.042,1.042,1.042,0,0,0-1.042-1.042" transform="translate(-79.449 -74.965)" fill="#161615"/>
    <path id="Caminho_147" data-name="Caminho 147" d="M170.7,137.457a1.231,1.231,0,1,0,1.231,1.231,1.231,1.231,0,0,0-1.231-1.231" transform="translate(-79.282 -64.307)" fill="#161615"/>
    <path id="Caminho_148" data-name="Caminho 148" d="M196.737,134.843l-1.823-2.976v2.27l.8,1.3a1.133,1.133,0,0,0,.081,1.21l-.884,1.432v2.27l1.991-3.25a1.136,1.136,0,0,0-.168-2.255" transform="translate(-91.187 -61.692)" fill="#161615"/>
    <path id="Caminho_149" data-name="Caminho 149" d="M144.263,134.841a1.136,1.136,0,0,0-.148,2.262l1.987,3.245v-2.271l-.9-1.459a1.131,1.131,0,0,0,.077-1.149l.823-1.334v-2.27l-1.823,2.976h-.016" transform="translate(-66.959 -61.691)" fill="#161615"/>
    <path id="Caminho_150" data-name="Caminho 150" d="M145.673,220.923a1.575,1.575,0,0,1,.336,1.049,1.556,1.556,0,0,1-.329,1.034,1.074,1.074,0,0,1-.866.392h-.769a.026.026,0,0,0-.03.03v2.255a.066.066,0,0,1-.074.074h-.381a.066.066,0,0,1-.075-.074V220.6a.066.066,0,0,1,.075-.074h1.232a1.1,1.1,0,0,1,.881.4m-.4,1.773a1.135,1.135,0,0,0,.209-.717,1.15,1.15,0,0,0-.209-.72.655.655,0,0,0-.545-.273h-.68a.026.026,0,0,0-.03.03v1.919a.026.026,0,0,0,.03.03h.68a.658.658,0,0,0,.545-.269" transform="translate(-67.128 -103.168)" fill="#161615"/>
    <path id="Caminho_151" data-name="Caminho 151" d="M152.694,221h-1.732a.026.026,0,0,0-.03.03v1.852a.027.027,0,0,0,.03.03h1.09a.066.066,0,0,1,.075.074v.321a.066.066,0,0,1-.075.074h-1.09a.026.026,0,0,0-.03.03v1.859a.027.027,0,0,0,.03.03h1.732a.066.066,0,0,1,.074.074v.313a.066.066,0,0,1-.074.074h-2.218a.066.066,0,0,1-.075-.074v-5.076a.066.066,0,0,1,.075-.075h2.218a.066.066,0,0,1,.074.075v.313a.066.066,0,0,1-.074.074" transform="translate(-70.363 -103.175)" fill="#161615"/>
    <path id="Caminho_152" data-name="Caminho 152" d="M157.038,225.405a1.34,1.34,0,0,1-.343-.956v-.172a.066.066,0,0,1,.075-.075h.366a.066.066,0,0,1,.075.075v.15a.968.968,0,0,0,.2.639.649.649,0,0,0,.523.242.675.675,0,0,0,.523-.231.881.881,0,0,0,.209-.613.893.893,0,0,0-.1-.436,1.158,1.158,0,0,0-.261-.321q-.16-.138-.534-.421a7.392,7.392,0,0,1-.59-.475,1.6,1.6,0,0,1-.355-.474,1.437,1.437,0,0,1-.138-.65,1.253,1.253,0,0,1,.336-.922,1.295,1.295,0,0,1,1.781.03,1.4,1.4,0,0,1,.34.982v.186a.066.066,0,0,1-.074.074H158.7a.066.066,0,0,1-.075-.074v-.194a.979.979,0,0,0-.2-.639.646.646,0,0,0-.526-.243.635.635,0,0,0-.492.213.858.858,0,0,0-.194.6.913.913,0,0,0,.086.407,1.113,1.113,0,0,0,.258.332q.172.157.508.411a7.886,7.886,0,0,1,.668.534,1.558,1.558,0,0,1,.34.448,1.32,1.32,0,0,1,.119.586,1.366,1.366,0,0,1-.351.982,1.191,1.191,0,0,1-.9.369,1.172,1.172,0,0,1-.9-.366" transform="translate(-73.303 -103.122)" fill="#161615"/>
    <path id="Caminho_153" data-name="Caminho 153" d="M163.575,225.405a1.34,1.34,0,0,1-.343-.956v-.172a.066.066,0,0,1,.074-.075h.366a.066.066,0,0,1,.075.075v.15a.968.968,0,0,0,.2.639.65.65,0,0,0,.523.242.675.675,0,0,0,.523-.231.881.881,0,0,0,.209-.613.893.893,0,0,0-.1-.436,1.158,1.158,0,0,0-.261-.321q-.16-.138-.534-.421a7.4,7.4,0,0,1-.59-.475,1.6,1.6,0,0,1-.355-.474,1.436,1.436,0,0,1-.138-.65,1.253,1.253,0,0,1,.336-.922,1.295,1.295,0,0,1,1.781.03,1.4,1.4,0,0,1,.34.982v.186a.066.066,0,0,1-.075.074h-.373a.066.066,0,0,1-.075-.074v-.194a.979.979,0,0,0-.2-.639.646.646,0,0,0-.526-.243.635.635,0,0,0-.492.213.858.858,0,0,0-.194.6.913.913,0,0,0,.086.407,1.113,1.113,0,0,0,.258.332q.172.157.508.411a7.8,7.8,0,0,1,.668.534,1.558,1.558,0,0,1,.34.448,1.321,1.321,0,0,1,.119.586,1.366,1.366,0,0,1-.351.982,1.191,1.191,0,0,1-.9.369,1.173,1.173,0,0,1-.9-.366" transform="translate(-76.362 -103.122)" fill="#161615"/>
    <path id="Caminho_154" data-name="Caminho 154" d="M170.312,225.412a1.29,1.29,0,0,1-.354-.948v-2.733a1.29,1.29,0,0,1,.354-.948,1.251,1.251,0,0,1,.93-.358,1.231,1.231,0,0,1,1.3,1.306v2.733a1.283,1.283,0,0,1-.359.944,1.264,1.264,0,0,1-.94.362,1.249,1.249,0,0,1-.93-.358m1.486-.333a.822.822,0,0,0,.213-.586v-2.785a.833.833,0,0,0-.213-.593.725.725,0,0,0-.556-.228.7.7,0,0,0-.545.228.843.843,0,0,0-.209.593v2.785a.832.832,0,0,0,.209.586.705.705,0,0,0,.545.228.727.727,0,0,0,.556-.228" transform="translate(-79.512 -103.122)" fill="#161615"/>
    <path id="Caminho_155" data-name="Caminho 155" d="M178.739,225.7l-.187-.925a.025.025,0,0,0-.011-.022.047.047,0,0,0-.026-.007h-1.351a.05.05,0,0,0-.027.007.025.025,0,0,0-.011.022l-.187.925a.071.071,0,0,1-.082.067h-.381a.07.07,0,0,1-.056-.022.067.067,0,0,1-.011-.06l1.12-5.077a.077.077,0,0,1,.082-.067h.448a.072.072,0,0,1,.083.067l1.135,5.077v.015a.059.059,0,0,1-.067.067h-.388a.076.076,0,0,1-.082-.067m-1.493-1.388h1.18q.022,0,.022-.03l-.6-2.934c0-.015-.01-.022-.015-.022s-.01.007-.015.022l-.6,2.934q0,.03.022.03" transform="translate(-82.529 -103.175)" fill="#161615"/>
    <path id="Caminho_156" data-name="Caminho 156" d="M183.328,225.405a1.34,1.34,0,0,1-.343-.956v-.172a.066.066,0,0,1,.075-.075h.366a.066.066,0,0,1,.075.075v.15a.968.968,0,0,0,.2.639.65.65,0,0,0,.523.242.675.675,0,0,0,.523-.231.881.881,0,0,0,.209-.613.893.893,0,0,0-.1-.436,1.159,1.159,0,0,0-.261-.321q-.16-.138-.534-.421a7.392,7.392,0,0,1-.59-.475,1.6,1.6,0,0,1-.355-.474,1.437,1.437,0,0,1-.138-.65,1.253,1.253,0,0,1,.336-.922,1.295,1.295,0,0,1,1.781.03,1.4,1.4,0,0,1,.34.982v.186a.066.066,0,0,1-.074.074h-.373a.066.066,0,0,1-.075-.074v-.194a.979.979,0,0,0-.2-.639.646.646,0,0,0-.526-.243.635.635,0,0,0-.492.213.858.858,0,0,0-.194.6.913.913,0,0,0,.086.407,1.113,1.113,0,0,0,.258.332q.172.157.508.411a7.883,7.883,0,0,1,.668.534,1.558,1.558,0,0,1,.34.448,1.321,1.321,0,0,1,.119.586,1.366,1.366,0,0,1-.351.982,1.191,1.191,0,0,1-.9.369,1.173,1.173,0,0,1-.9-.366" transform="translate(-85.603 -103.122)" fill="#161615"/>
    <path id="Caminho_157" data-name="Caminho 157" d="M193.149,226.466a.837.837,0,0,1-.254-.608.823.823,0,0,1,.254-.609.867.867,0,0,1,1.217,0,.823.823,0,0,1,.254.609.838.838,0,0,1-.254.608.848.848,0,0,1-1.217,0" transform="translate(-90.243 -105.262)" fill="#161615"/>
    <path id="Caminho_158" data-name="Caminho 158" d="M201.72,225.405a1.34,1.34,0,0,1-.343-.956v-.172a.066.066,0,0,1,.074-.075h.366a.066.066,0,0,1,.075.075v.15a.968.968,0,0,0,.2.639.649.649,0,0,0,.523.242.675.675,0,0,0,.523-.231.881.881,0,0,0,.209-.613.893.893,0,0,0-.1-.436,1.159,1.159,0,0,0-.261-.321q-.16-.138-.534-.421a7.392,7.392,0,0,1-.59-.475,1.6,1.6,0,0,1-.355-.474,1.436,1.436,0,0,1-.138-.65,1.253,1.253,0,0,1,.336-.922,1.295,1.295,0,0,1,1.781.03,1.4,1.4,0,0,1,.34.982v.186a.066.066,0,0,1-.075.074h-.373a.066.066,0,0,1-.075-.074v-.194a.979.979,0,0,0-.2-.639.646.646,0,0,0-.526-.243.635.635,0,0,0-.492.213.858.858,0,0,0-.194.6.913.913,0,0,0,.086.407,1.113,1.113,0,0,0,.258.332q.172.157.508.411a7.881,7.881,0,0,1,.668.534,1.558,1.558,0,0,1,.34.448,1.32,1.32,0,0,1,.119.586,1.366,1.366,0,0,1-.351.982,1.191,1.191,0,0,1-.9.369,1.172,1.172,0,0,1-.9-.366" transform="translate(-94.207 -103.122)" fill="#161615"/>
    <path id="Caminho_159" data-name="Caminho 159" d="M210.535,221H208.8a.026.026,0,0,0-.03.03v1.852a.027.027,0,0,0,.03.03h1.09a.066.066,0,0,1,.075.074v.321a.066.066,0,0,1-.075.074H208.8a.026.026,0,0,0-.03.03v1.859a.027.027,0,0,0,.03.03h1.732a.066.066,0,0,1,.074.074v.313a.066.066,0,0,1-.074.074h-2.218a.066.066,0,0,1-.074-.074v-5.076a.066.066,0,0,1,.074-.075h2.218a.066.066,0,0,1,.074.075v.313a.066.066,0,0,1-.074.074" transform="translate(-97.423 -103.175)" fill="#161615"/>
    <path id="Caminho_160" data-name="Caminho 160" d="M216.964,225.7,216.2,223.4a.029.029,0,0,0-.03-.023h-.65a.026.026,0,0,0-.03.03v2.285a.066.066,0,0,1-.075.075h-.381a.066.066,0,0,1-.075-.075v-5.076a.066.066,0,0,1,.075-.075h1.232a1.1,1.1,0,0,1,.881.4,1.562,1.562,0,0,1,.336,1.041,1.6,1.6,0,0,1-.209.836,1.135,1.135,0,0,1-.567.493.027.027,0,0,0-.022.037l.814,2.337.007.03q0,.053-.067.053h-.388a.087.087,0,0,1-.089-.06m-1.471-4.674v1.889a.026.026,0,0,0,.03.03h.672a.669.669,0,0,0,.552-.265,1.108,1.108,0,0,0,.209-.706,1.123,1.123,0,0,0-.209-.709.667.667,0,0,0-.552-.269h-.672a.026.026,0,0,0-.03.03" transform="translate(-100.567 -103.175)" fill="#161615"/>
    <path id="Caminho_161" data-name="Caminho 161" d="M222.5,225.7l-1.082-5.077V220.6a.06.06,0,0,1,.067-.068h.418a.072.072,0,0,1,.082.068l.806,4.173c.005.01.01.015.015.015s.01,0,.015-.015l.8-4.173a.078.078,0,0,1,.082-.068h.4c.054,0,.077.028.067.083l-1.082,5.077a.072.072,0,0,1-.083.067h-.426a.077.077,0,0,1-.082-.067" transform="translate(-103.586 -103.175)" fill="#161615"/>
    <path id="Caminho_162" data-name="Caminho 162" d="M228.8,225.689v-5.077a.066.066,0,0,1,.074-.075h.381a.066.066,0,0,1,.074.075v5.077a.066.066,0,0,1-.074.074h-.381a.066.066,0,0,1-.074-.074" transform="translate(-107.038 -103.175)" fill="#161615"/>
    <path id="Caminho_163" data-name="Caminho 163" d="M234.745,221.911l-.388.022a.066.066,0,0,1-.075-.074v-.187a.8.8,0,0,0-.2-.567.771.771,0,0,0-1.071,0,.79.79,0,0,0-.2.567v2.852a.79.79,0,0,0,.2.567.771.771,0,0,0,1.071,0,.8.8,0,0,0,.2-.567v-.186a.066.066,0,0,1,.075-.075l.388.022a.066.066,0,0,1,.075.074v.12a1.308,1.308,0,0,1-.28.862,1.149,1.149,0,0,1-.758.407c-.025.01-.03.022-.015.037a1,1,0,0,1,.306.687.571.571,0,0,1-.175.47.661.661,0,0,1-.429.142.966.966,0,0,1-.217-.022.068.068,0,0,1-.06-.082l.022-.164a.07.07,0,0,1,.074-.06.045.045,0,0,0,.03.007.392.392,0,0,0,.243-.045.281.281,0,0,0,.123-.217.414.414,0,0,0,.007-.09.936.936,0,0,0-.329-.642.049.049,0,0,0-.037-.015,1.14,1.14,0,0,1-.765-.4,1.312,1.312,0,0,1-.288-.873v-2.77a1.269,1.269,0,0,1,.348-.933,1.239,1.239,0,0,1,.922-.351,1.2,1.2,0,0,1,1.277,1.284v.127a.066.066,0,0,1-.075.075" transform="translate(-108.665 -103.122)" fill="#161615"/>
    <path id="Caminho_164" data-name="Caminho 164" d="M239.587,225.412a1.29,1.29,0,0,1-.354-.948v-2.733a1.29,1.29,0,0,1,.354-.948,1.251,1.251,0,0,1,.93-.358,1.231,1.231,0,0,1,1.3,1.306v2.733a1.283,1.283,0,0,1-.359.944,1.264,1.264,0,0,1-.94.362,1.249,1.249,0,0,1-.93-.358m1.486-.333a.822.822,0,0,0,.213-.586v-2.785a.833.833,0,0,0-.213-.593.725.725,0,0,0-.556-.228.7.7,0,0,0-.545.228.843.843,0,0,0-.209.593v2.785a.832.832,0,0,0,.209.586.705.705,0,0,0,.545.228.727.727,0,0,0,.556-.228" transform="translate(-111.921 -103.122)" fill="#161615"/>
    <path id="Caminho_165" data-name="Caminho 165" d="M246.486,225.405a1.34,1.34,0,0,1-.343-.956v-.172a.066.066,0,0,1,.075-.075h.366a.066.066,0,0,1,.075.075v.15a.968.968,0,0,0,.2.639.65.65,0,0,0,.523.242.675.675,0,0,0,.523-.231.881.881,0,0,0,.209-.613.893.893,0,0,0-.1-.436,1.158,1.158,0,0,0-.261-.321q-.16-.138-.534-.421a7.4,7.4,0,0,1-.59-.475,1.6,1.6,0,0,1-.355-.474,1.437,1.437,0,0,1-.138-.65,1.253,1.253,0,0,1,.336-.922,1.295,1.295,0,0,1,1.781.03,1.4,1.4,0,0,1,.34.982v.186a.066.066,0,0,1-.074.074h-.373a.066.066,0,0,1-.075-.074v-.194a.979.979,0,0,0-.2-.639.646.646,0,0,0-.526-.243.635.635,0,0,0-.492.213.858.858,0,0,0-.194.6.913.913,0,0,0,.086.407,1.114,1.114,0,0,0,.258.332q.172.157.508.411a7.8,7.8,0,0,1,.668.534,1.558,1.558,0,0,1,.34.448,1.32,1.32,0,0,1,.119.586,1.366,1.366,0,0,1-.351.982,1.191,1.191,0,0,1-.9.369,1.172,1.172,0,0,1-.9-.366" transform="translate(-115.15 -103.122)" fill="#161615"/>
    <path id="Caminho_166" data-name="Caminho 166" d="M256.307,226.466a.838.838,0,0,1-.254-.608.823.823,0,0,1,.254-.609.867.867,0,0,1,1.217,0,.823.823,0,0,1,.254.609.837.837,0,0,1-.254.608.848.848,0,0,1-1.217,0" transform="translate(-119.79 -105.262)" fill="#161615"/>
    <path id="Caminho_167" data-name="Caminho 167" d="M267.079,220.612v.313A.066.066,0,0,1,267,221h-.986a.026.026,0,0,0-.03.03v4.659a.066.066,0,0,1-.075.074h-.38a.066.066,0,0,1-.074-.074V221.03a.026.026,0,0,0-.03-.03H264.5a.066.066,0,0,1-.074-.074v-.313a.066.066,0,0,1,.074-.075H267a.066.066,0,0,1,.074.075" transform="translate(-123.709 -103.175)" fill="#161615"/>
    <path id="Caminho_168" data-name="Caminho 168" d="M273.89,221h-1.732a.026.026,0,0,0-.03.03v1.852a.026.026,0,0,0,.03.03h1.09a.066.066,0,0,1,.075.074v.321a.066.066,0,0,1-.075.074h-1.09a.026.026,0,0,0-.03.03v1.859a.026.026,0,0,0,.03.03h1.732a.066.066,0,0,1,.074.074v.313a.066.066,0,0,1-.074.074h-2.218a.066.066,0,0,1-.074-.074v-5.076a.066.066,0,0,1,.074-.075h2.218a.066.066,0,0,1,.074.075v.313a.066.066,0,0,1-.074.074" transform="translate(-127.063 -103.175)" fill="#161615"/>
    <path id="Caminho_169" data-name="Caminho 169" d="M278.426,225.42a1.277,1.277,0,0,1-.347-.94v-2.77a1.269,1.269,0,0,1,.347-.933,1.237,1.237,0,0,1,.922-.351,1.2,1.2,0,0,1,1.277,1.284v.127a.066.066,0,0,1-.074.075l-.388.022a.066.066,0,0,1-.075-.075v-.186a.8.8,0,0,0-.2-.568.771.771,0,0,0-1.072,0,.792.792,0,0,0-.2.568v2.852a.79.79,0,0,0,.2.567.771.771,0,0,0,1.072,0,.8.8,0,0,0,.2-.567v-.187a.067.067,0,0,1,.075-.075l.388.023a.066.066,0,0,1,.074.074v.12a1.269,1.269,0,0,1-.351.94,1.251,1.251,0,0,1-.926.351,1.237,1.237,0,0,1-.922-.351" transform="translate(-130.095 -103.123)" fill="#161615"/>
    <path id="Caminho_170" data-name="Caminho 170" d="M287.441,220.537h.373a.066.066,0,0,1,.075.075v5.076a.066.066,0,0,1-.075.075h-.44a.082.082,0,0,1-.082-.06l-1.456-3.86c-.005-.015-.013-.021-.022-.019s-.015.011-.015.026l.007,3.837a.066.066,0,0,1-.075.075h-.381a.066.066,0,0,1-.074-.075v-5.076a.066.066,0,0,1,.074-.075h.433a.083.083,0,0,1,.082.06l1.463,3.867c0,.014.012.021.022.019s.015-.012.015-.026v-3.845a.066.066,0,0,1,.074-.075" transform="translate(-133.462 -103.175)" fill="#161615"/>
    <path id="Caminho_171" data-name="Caminho 171" d="M293.009,225.412a1.29,1.29,0,0,1-.354-.948v-2.733a1.29,1.29,0,0,1,.354-.948,1.251,1.251,0,0,1,.93-.358,1.231,1.231,0,0,1,1.3,1.306v2.733a1.283,1.283,0,0,1-.359.944,1.264,1.264,0,0,1-.94.362,1.249,1.249,0,0,1-.93-.358m1.486-.333a.822.822,0,0,0,.213-.586v-2.785a.833.833,0,0,0-.213-.593.725.725,0,0,0-.556-.228.7.7,0,0,0-.545.228.843.843,0,0,0-.209.593v2.785a.832.832,0,0,0,.209.586.7.7,0,0,0,.545.228.727.727,0,0,0,.556-.228" transform="translate(-136.914 -103.122)" fill="#161615"/>
    <path id="Caminho_172" data-name="Caminho 172" d="M299.992,225.689v-5.077a.066.066,0,0,1,.075-.075h.381a.066.066,0,0,1,.074.075v4.659a.027.027,0,0,0,.03.03h1.71a.066.066,0,0,1,.074.074v.313a.066.066,0,0,1-.074.074h-2.2a.066.066,0,0,1-.075-.074" transform="translate(-140.346 -103.175)" fill="#161615"/>
    <path id="Caminho_173" data-name="Caminho 173" d="M306.351,225.412a1.29,1.29,0,0,1-.354-.948v-2.733a1.29,1.29,0,0,1,.354-.948,1.251,1.251,0,0,1,.93-.358,1.231,1.231,0,0,1,1.3,1.306v2.733a1.283,1.283,0,0,1-.359.944,1.264,1.264,0,0,1-.94.362,1.249,1.249,0,0,1-.93-.358m1.486-.333a.822.822,0,0,0,.213-.586v-2.785a.833.833,0,0,0-.213-.593.725.725,0,0,0-.556-.228.7.7,0,0,0-.545.228.843.843,0,0,0-.209.593v2.785a.832.832,0,0,0,.209.586.705.705,0,0,0,.545.228.727.727,0,0,0,.556-.228" transform="translate(-143.156 -103.122)" fill="#161615"/>
    <path id="Caminho_174" data-name="Caminho 174" d="M313.453,225.431a1.22,1.22,0,0,1-.343-.907v-2.852a1.218,1.218,0,0,1,.343-.907,1.41,1.41,0,0,1,1.84,0,1.226,1.226,0,0,1,.348.911V222a.066.066,0,0,1-.075.074h-.38a.066.066,0,0,1-.075-.074v-.336a.784.784,0,0,0-.2-.564.775.775,0,0,0-1.071,0,.781.781,0,0,0-.2.56v2.867a.783.783,0,0,0,.2.56.776.776,0,0,0,1.071,0,.784.784,0,0,0,.2-.564v-.955a.026.026,0,0,0-.03-.03h-.642a.066.066,0,0,1-.075-.075v-.313a.066.066,0,0,1,.075-.075h1.127a.066.066,0,0,1,.075.075v1.366a1.212,1.212,0,0,1-.348.907,1.261,1.261,0,0,1-.922.34,1.247,1.247,0,0,1-.918-.34" transform="translate(-146.483 -103.122)" fill="#161615"/>
    <path id="Caminho_175" data-name="Caminho 175" d="M320.362,225.689v-5.077a.066.066,0,0,1,.074-.075h.381a.066.066,0,0,1,.074.075v5.077a.066.066,0,0,1-.074.074h-.381a.066.066,0,0,1-.074-.074" transform="translate(-149.876 -103.175)" fill="#161615"/>
    <path id="Caminho_176" data-name="Caminho 176" d="M325.579,225.7l-.187-.925a.025.025,0,0,0-.011-.022.048.048,0,0,0-.026-.007H324a.05.05,0,0,0-.027.007.024.024,0,0,0-.011.022l-.187.925c0,.045-.032.067-.082.067h-.38a.07.07,0,0,1-.056-.022.067.067,0,0,1-.011-.06l1.12-5.077a.077.077,0,0,1,.082-.067h.448a.071.071,0,0,1,.082.067l1.135,5.077v.015a.059.059,0,0,1-.067.067h-.388a.076.076,0,0,1-.082-.067m-1.493-1.388h1.179c.015,0,.022-.01.022-.03l-.6-2.934c0-.015-.01-.022-.015-.022s-.01.007-.015.022l-.6,2.934c0,.02.008.03.022.03" transform="translate(-151.226 -103.175)" fill="#161615"/>
    <path id="Caminho_177" data-name="Caminho 177" d="M297.9,162.784V129.3a.507.507,0,0,1,.507-.508h6.242a.508.508,0,0,1,.507.508V155.48a.507.507,0,0,0,.507.507h8.172a.507.507,0,0,1,.507.508v6.289a.507.507,0,0,1-.507.507H298.4a.507.507,0,0,1-.507-.507" transform="translate(-139.366 -60.255)" fill="#161615"/>
    <path id="Caminho_178" data-name="Caminho 178" d="M267.819,128.8H257.25a.4.4,0,0,0-.4.343s-3.088,17.12-3.1,17.28a.311.311,0,1,1-.618,0c-.014-.16-3.1-17.28-3.1-17.28a.4.4,0,0,0-.4-.343H239.067a.4.4,0,0,0-.4.4v33.7a.4.4,0,0,0,.4.4h6.5a.4.4,0,0,0,.4-.4s-.087-20.38-.106-21.512a.4.4,0,0,1,.8-.071c.126.8,4.167,21.663,4.167,21.663a.394.394,0,0,0,.211.271l-.005.049h4.822l-.005-.049a.394.394,0,0,0,.211-.271s4.042-20.866,4.167-21.663a.4.4,0,0,1,.8.071c-.019,1.132-.106,21.512-.106,21.512a.4.4,0,0,0,.4.4h6.5a.4.4,0,0,0,.4-.4V129.2a.4.4,0,0,0-.4-.4" transform="translate(-111.656 -60.255)" fill="#161615"/>
    <path id="Caminho_179" data-name="Caminho 179" d="M218.774,120.571h1.51v-4.228a.956.956,0,0,0-.956-.956h-7.242a.956.956,0,0,0-.956.956v33.181a5.28,5.28,0,0,1-.5,2.661,1.791,1.791,0,0,1-1.648.805,1.63,1.63,0,0,1-1.5-.854,5.308,5.308,0,0,1-.5-2.612v-3.877a.956.956,0,0,0-.956-.956h-7.071a.956.956,0,0,0-.956.956v2.144q0,6.127,2.758,9.264t8.178,3.137q5.664,0,8.508-3.113c.024-.027.047-.056.071-.083V121.834a1.264,1.264,0,0,1,1.263-1.262" transform="translate(-92.629 -53.982)" fill="#161615"/>
    <line id="Linha_2" data-name="Linha 2" x2="98.499" transform="translate(76.358 112.125)" fill="#161615"/>
    <rect id="Retângulo_90" data-name="Retângulo 90" width="98.499" height="0.476" transform="translate(76.358 111.886)" fill="#161615"/>
    <path id="Caminho_180" data-name="Caminho 180" d="M153.964,188.623a1.17,1.17,0,0,1-.353-.892V185.54a1.169,1.169,0,0,1,.353-.891,1.48,1.48,0,0,1,1.877,0,1.175,1.175,0,0,1,.357.895v.247a.077.077,0,0,1-.078.078h-.759a.073.073,0,0,1-.055-.023.074.074,0,0,1-.023-.055v-.26a.463.463,0,0,0-.1-.315.35.35,0,0,0-.279-.12.343.343,0,0,0-.272.12.466.466,0,0,0-.1.315v2.2a.466.466,0,0,0,.1.315.343.343,0,0,0,.272.12.35.35,0,0,0,.279-.12.463.463,0,0,0,.1-.315v-.519a.029.029,0,0,0-.032-.032h-.285a.077.077,0,0,1-.078-.078v-.577a.075.075,0,0,1,.022-.055.077.077,0,0,1,.055-.023h1.154a.078.078,0,0,1,.055.023.076.076,0,0,1,.022.055v1.2a1.165,1.165,0,0,1-.357.892,1.487,1.487,0,0,1-1.877,0" transform="translate(-71.864 -86.228)" fill="#161615"/>
    <path id="Caminho_181" data-name="Caminho 181" d="M162.95,188.885l-.5-1.79c-.009-.017-.02-.026-.033-.026h-.22a.029.029,0,0,0-.032.032v1.77a.077.077,0,0,1-.078.078h-.759a.077.077,0,0,1-.078-.078v-4.383a.077.077,0,0,1,.078-.078h1.31a1.192,1.192,0,0,1,.635.172,1.148,1.148,0,0,1,.432.483,1.6,1.6,0,0,1,.152.714,1.488,1.488,0,0,1-.146.674,1.1,1.1,0,0,1-.4.454.047.047,0,0,0-.02.016.022.022,0,0,0,0,.023l.6,1.913.006.026c0,.043-.023.065-.071.065h-.778a.086.086,0,0,1-.091-.065m-.784-3.657v1.108a.029.029,0,0,0,.032.033h.292a.4.4,0,0,0,.328-.159.664.664,0,0,0,.127-.425.676.676,0,0,0-.127-.432.4.4,0,0,0-.328-.159H162.2a.029.029,0,0,0-.032.032" transform="translate(-75.439 -86.274)" fill="#161615"/>
    <path id="Caminho_182" data-name="Caminho 182" d="M169.134,188.636a1.346,1.346,0,0,1-.353-.976V184.49a.076.076,0,0,1,.023-.055.074.074,0,0,1,.055-.022h.759a.077.077,0,0,1,.078.078v3.262a.524.524,0,0,0,.1.337.332.332,0,0,0,.272.129.323.323,0,0,0,.269-.129.536.536,0,0,0,.1-.337V184.49a.077.077,0,0,1,.022-.055.075.075,0,0,1,.055-.022h.758a.076.076,0,0,1,.078.078v3.171a1.345,1.345,0,0,1-.353.976,1.372,1.372,0,0,1-1.867,0" transform="translate(-78.961 -86.274)" fill="#161615"/>
    <path id="Caminho_183" data-name="Caminho 183" d="M178.42,184.574a1.164,1.164,0,0,1,.431.49,1.617,1.617,0,0,1,.153.717,1.4,1.4,0,0,1-.324.966,1.086,1.086,0,0,1-.85.363h-.486a.029.029,0,0,0-.033.032v1.725a.077.077,0,0,1-.078.078h-.758a.074.074,0,0,1-.055-.023.075.075,0,0,1-.022-.055v-4.39a.077.077,0,0,1,.078-.078h1.31a1.172,1.172,0,0,1,.635.175m-.457,1.664a.686.686,0,0,0,.127-.438.714.714,0,0,0-.127-.448.4.4,0,0,0-.334-.162h-.285a.029.029,0,0,0-.033.032v1.141a.029.029,0,0,0,.033.032h.285a.405.405,0,0,0,.334-.159" transform="translate(-82.524 -86.268)" fill="#161615"/>
    <path id="Caminho_184" data-name="Caminho 184" d="M184.138,188.607a1.248,1.248,0,0,1-.357-.933V185.6a1.248,1.248,0,0,1,.357-.933,1.477,1.477,0,0,1,1.909,0,1.242,1.242,0,0,1,.36.933v2.075a1.243,1.243,0,0,1-.36.933,1.477,1.477,0,0,1-1.909,0m1.245-.561a.489.489,0,0,0,.111-.334V185.56a.492.492,0,0,0-.111-.334.368.368,0,0,0-.292-.126.358.358,0,0,0-.288.126.5.5,0,0,0-.107.334v2.153a.5.5,0,0,0,.107.334.358.358,0,0,0,.288.126.368.368,0,0,0,.292-.126" transform="translate(-85.979 -86.229)" fill="#161615"/>
    <path id="Caminho_185" data-name="Caminho 185" d="M283.618,327.748v-.009a1.658,1.658,0,0,1,1.656-1.709,1.76,1.76,0,0,1,1.128.354.189.189,0,0,1-.109.34.2.2,0,0,1-.118-.047,1.4,1.4,0,0,0-.915-.3A1.291,1.291,0,0,0,284,327.729v.01a1.277,1.277,0,0,0,1.307,1.372,1.553,1.553,0,0,0,.953-.33v-.821h-.887a.167.167,0,0,1-.166-.164.168.168,0,0,1,.166-.17h1.062a.189.189,0,0,1,.184.189v1a.268.268,0,0,1-.128.227,2.017,2.017,0,0,1-1.2.4,1.619,1.619,0,0,1-1.679-1.7" transform="translate(-132.686 -152.528)" fill="#161615"/>
    <path id="Caminho_186" data-name="Caminho 186" d="M292.624,326.325a.189.189,0,0,1,.185-.189h1.236a1.3,1.3,0,0,1,.939.33.913.913,0,0,1,.255.651v.009a.96.96,0,0,1-.882.958l.821,1.057a.2.2,0,0,1,.061.136.2.2,0,0,1-.188.184.217.217,0,0,1-.175-.1l-.93-1.208H293v1.119a.187.187,0,1,1-.373,0Zm1.387,1.5c.5,0,.849-.255.849-.68v-.01c0-.406-.311-.651-.845-.651H293v1.34Z" transform="translate(-136.899 -152.577)" fill="#161615"/>
    <path id="Caminho_187" data-name="Caminho 187" d="M300.716,328.036v-1.755a.186.186,0,1,1,.372,0v1.731a.973.973,0,0,0,1.01,1.113c.609,0,1-.368,1-1.09v-1.755a.186.186,0,1,1,.373,0v1.727a1.377,1.377,0,1,1-2.751.028" transform="translate(-140.685 -152.557)" fill="#161615"/>
    <path id="Caminho_188" data-name="Caminho 188" d="M309.321,326.326a.189.189,0,0,1,.184-.189h1.053c.745,0,1.236.4,1.236,1.048v.01c0,.712-.594,1.08-1.3,1.08h-.8v1a.186.186,0,1,1-.372,0Zm1.189,1.609c.548,0,.906-.293.906-.727V327.2c0-.472-.354-.717-.887-.717h-.836v1.453Z" transform="translate(-144.711 -152.578)" fill="#161615"/>
    <path id="Caminho_189" data-name="Caminho 189" d="M316.748,327.748v-.009a1.685,1.685,0,1,1,3.37-.01v.01a1.685,1.685,0,1,1-3.37.009m2.983,0v-.009a1.314,1.314,0,0,0-1.3-1.364,1.3,1.3,0,0,0-1.293,1.354v.01a1.313,1.313,0,0,0,1.3,1.363,1.3,1.3,0,0,0,1.293-1.354" transform="translate(-148.185 -152.528)" fill="#161615"/>
    <path id="Caminho_190" data-name="Caminho 190" d="M327.63,329.174a.363.363,0,0,1-.136-.278.344.344,0,0,1,.344-.349.328.328,0,0,1,.217.076.7.7,0,0,0,.439.165c.283,0,.453-.165.453-.548v-1.792a.363.363,0,1,1,.726,0v1.826a1.2,1.2,0,0,1-.311.882,1.178,1.178,0,0,1-.858.307,1.4,1.4,0,0,1-.873-.288" transform="translate(-153.213 -152.553)" fill="#161615"/>
    <path id="Caminho_191" data-name="Caminho 191" d="M334.759,326.464a.36.36,0,0,1,.363-.363h.08a.372.372,0,0,1,.33.188l.878,1.43.882-1.434a.357.357,0,0,1,.326-.184h.08a.36.36,0,0,1,.363.363v2.624a.361.361,0,1,1-.722,0v-1.647l-.637.982a.34.34,0,0,1-.6,0l-.627-.967V329.1a.355.355,0,0,1-.359.354.35.35,0,0,1-.353-.354Z" transform="translate(-156.611 -152.561)" fill="#161615"/>
    <path id="Caminho_192" data-name="Caminho 192" d="M344.234,326.448a.363.363,0,0,1,.727,0v2.307h1.345a.33.33,0,0,1,0,.66H344.6a.361.361,0,0,1-.363-.363Z" transform="translate(-161.044 -152.553)" fill="#161615"/>
    <path id="Caminho_193" data-name="Caminho 193" d="M215.175,281.735h-5a.363.363,0,0,0-.328.208l-4.916,9.911-4.722-9.912a.362.362,0,0,0-.327-.207H195.1a.363.363,0,0,0-.363.363v19.8a.363.363,0,0,0,.363.363h3.643a.363.363,0,0,0,.363-.363v-12.1l5.707,11.8a.363.363,0,0,0,.656-.006l5.418-11.786v12.1a.363.363,0,0,0,.363.363h3.928a.363.363,0,0,0,.363-.363V282.1a.363.363,0,0,0-.363-.363" transform="translate(-91.103 -131.805)" fill="#161615"/>
    <path id="Caminho_194" data-name="Caminho 194" d="M179.884,281.735h-3.5a.363.363,0,0,0-.363.363V293.39c0,2.691-.435,4.4-3.006,4.685a30.915,30.915,0,0,1-3.464.151.362.362,0,0,0-.362.362v2.964a.362.362,0,0,0,.335.362c1.885.145,2.845.27,3.287.27a7.088,7.088,0,0,0,5.155-1.825,6.667,6.667,0,0,0,2.282-5.147V282.1a.363.363,0,0,0-.363-.363" transform="translate(-79.152 -131.805)" fill="#161615"/>
    <path id="Caminho_195" data-name="Caminho 195" d="M247.431,298.354h-4.47V282.1a.363.363,0,0,0-.363-.363h-3.643a.363.363,0,0,0-.363.363v19.8a.363.363,0,0,0,.363.363H249c-.02-.028-.037-.059-.057-.087a6.881,6.881,0,0,1-1.513-3.817" transform="translate(-111.621 -131.805)" fill="#161615"/>
    <path id="Caminho_196" data-name="Caminho 196" d="M261.955,283.791h0l.258-.009a.271.271,0,0,0,.27-.271,2.112,2.112,0,0,0-.281-1.093,1.936,1.936,0,0,0-.8-.74,2.532,2.532,0,0,0-1.156-.259,2.5,2.5,0,0,0-1.167.264,1.944,1.944,0,0,0-.8.749,2.152,2.152,0,0,0-.282,1.106v2.593a2.206,2.206,0,0,0,.281,1.114,1.934,1.934,0,0,0,.8.759h0a2.517,2.517,0,0,0,1.167.263,2.487,2.487,0,0,0,1.157-.264,1.951,1.951,0,0,0,.8-.749,2.137,2.137,0,0,0,.281-1.1v-.045c0-.035-.013-.207-.264-.207l-.269-.009a.252.252,0,0,0-.271.261,1.292,1.292,0,0,1-.387.985,1.436,1.436,0,0,1-1.044.374,1.452,1.452,0,0,1-1.05-.374,1.284,1.284,0,0,1-.391-.984v-2.64a1.275,1.275,0,0,1,.387-.979,1.673,1.673,0,0,1,2.1,0,1.274,1.274,0,0,1,.386.979v.055c0,.022.007.216.276.216" transform="translate(-120.702 -131.658)" fill="#161615"/>
    <path id="Caminho_197" data-name="Caminho 197" d="M271.834,281.7a2.48,2.48,0,0,0-1.187-.279,2.45,2.45,0,0,0-1.182.279,1.971,1.971,0,0,0-.8.792,2.356,2.356,0,0,0-.28,1.156v2.385a2.361,2.361,0,0,0,.28,1.157,1.984,1.984,0,0,0,.8.792,2.448,2.448,0,0,0,1.182.278,2.478,2.478,0,0,0,1.187-.278,2.007,2.007,0,0,0,.81-.791,2.332,2.332,0,0,0,.285-1.159v-2.385a2.323,2.323,0,0,0-.285-1.157,2,2,0,0,0-.81-.791m.289,1.939v2.412a1.425,1.425,0,0,1-.4,1.068,1.447,1.447,0,0,1-1.074.4,1.374,1.374,0,0,1-1.459-1.468v-2.412a1.434,1.434,0,0,1,.4-1.065,1.408,1.408,0,0,1,1.059-.4,1.387,1.387,0,0,1,1.476,1.468" transform="translate(-125.558 -131.658)" fill="#161615"/>
    <path id="Caminho_198" data-name="Caminho 198" d="M282.533,285.159a1.645,1.645,0,0,0,.9-.565,2.023,2.023,0,0,0-.121-2.55,1.82,1.82,0,0,0-1.347-.522h-2.276a.26.26,0,0,0-.19.078.266.266,0,0,0-.081.193v6.171a.27.27,0,0,0,.271.27h.264a.262.262,0,0,0,.189-.078.267.267,0,0,0,.081-.193v-2.733h1.508l1.371,2.83,0,.008a.3.3,0,0,0,.269.165h.255a.235.235,0,0,0,.261-.234.285.285,0,0,0-.035-.126Zm.486-1.755a1.041,1.041,0,0,1-1.1,1.1h-1.695v-2.226h1.695a1.073,1.073,0,0,1,.8.3,1.1,1.1,0,0,1,.3.819" transform="translate(-130.72 -131.706)" fill="#161615"/>
    <path id="Caminho_199" data-name="Caminho 199" d="M293.716,282.048a1.841,1.841,0,0,0-1.362-.525h-2.321a.272.272,0,0,0-.27.271v6.171a.26.26,0,0,0,.079.191.263.263,0,0,0,.191.079h.264a.269.269,0,0,0,.271-.27V285.3h1.768a1.875,1.875,0,0,0,1.374-.521,1.837,1.837,0,0,0,.526-1.361,1.877,1.877,0,0,0-.52-1.374Zm-.286,1.383a1.128,1.128,0,0,1-.3.83h0a1.068,1.068,0,0,1-.808.31h-1.75v-2.289h1.75a1.068,1.068,0,0,1,.808.311,1.138,1.138,0,0,1,.3.838" transform="translate(-135.561 -131.706)" fill="#161615"/>
    <path id="Caminho_200" data-name="Caminho 200" d="M303.03,281.7a2.653,2.653,0,0,0-2.37,0,1.986,1.986,0,0,0-.8.792,2.362,2.362,0,0,0-.279,1.156v2.385a2.367,2.367,0,0,0,.279,1.157,1.993,1.993,0,0,0,.8.791h0a2.458,2.458,0,0,0,1.183.278,2.482,2.482,0,0,0,1.188-.278,2.013,2.013,0,0,0,.81-.791,2.336,2.336,0,0,0,.285-1.158v-2.385a2.332,2.332,0,0,0-.285-1.157,2,2,0,0,0-.81-.791m.29,1.939v2.412a1.425,1.425,0,0,1-.4,1.068,1.449,1.449,0,0,1-1.075.4,1.372,1.372,0,0,1-1.458-1.468v-2.412a1.436,1.436,0,0,1,.4-1.065,1.413,1.413,0,0,1,1.059-.4,1.387,1.387,0,0,1,1.477,1.468" transform="translate(-140.153 -131.658)" fill="#161615"/>
    <path id="Caminho_201" data-name="Caminho 201" d="M313.728,285.159a1.651,1.651,0,0,0,.9-.565,2.021,2.021,0,0,0-.121-2.55,1.818,1.818,0,0,0-1.348-.522h-2.275a.261.261,0,0,0-.189.078.267.267,0,0,0-.081.193v6.171a.271.271,0,0,0,.271.27h.264a.257.257,0,0,0,.189-.078.265.265,0,0,0,.082-.193v-2.733h1.508l1.371,2.83,0,.008a.3.3,0,0,0,.269.165h.255a.234.234,0,0,0,.261-.234.291.291,0,0,0-.034-.126Zm.486-1.755a1.042,1.042,0,0,1-1.1,1.1h-1.695v-2.226h1.695a1.073,1.073,0,0,1,.8.3,1.1,1.1,0,0,1,.3.819" transform="translate(-145.314 -131.706)" fill="#161615"/>
    <path id="Caminho_202" data-name="Caminho 202" d="M323.677,281.763a.275.275,0,0,0-.273-.205h-.391a.273.273,0,0,0-.272.2l-2.022,6.159a.25.25,0,0,0,.04.242.259.259,0,0,0,.206.091h.292a.274.274,0,0,0,.273-.2l.355-1.107h2.66l.363,1.106a.273.273,0,0,0,.272.2h.282a.239.239,0,0,0,.262-.243.211.211,0,0,0-.018-.1Zm.641,4.454h-2.21l1.1-3.43Zm.743,1.782Z" transform="translate(-150.036 -131.722)" fill="#161615"/>
    <path id="Caminho_203" data-name="Caminho 203" d="M334.485,281.637a.266.266,0,0,0-.192-.079h-4.069a.268.268,0,0,0-.27.27v.209a.271.271,0,0,0,.27.271h1.586v5.672a.26.26,0,0,0,.079.191.266.266,0,0,0,.192.079h.263a.27.27,0,0,0,.271-.27v-5.672h1.677a.271.271,0,0,0,.27-.271v-.209a.27.27,0,0,0-.077-.19Z" transform="translate(-154.363 -131.722)" fill="#161615"/>
    <path id="Caminho_204" data-name="Caminho 204" d="M344.669,282.308a.272.272,0,0,0,.271-.271v-.209a.269.269,0,0,0-.08-.192.265.265,0,0,0-.191-.079h-3.841a.262.262,0,0,0-.192.079.268.268,0,0,0-.079.192v6.152a.272.272,0,0,0,.271.271h3.841a.262.262,0,0,0,.189-.078.267.267,0,0,0,.081-.193v-.21a.267.267,0,0,0-.08-.191.263.263,0,0,0-.191-.079h-3.306v-2.235h2.3a.27.27,0,0,0,.271-.271v-.209a.268.268,0,0,0-.079-.192.265.265,0,0,0-.192-.079h-2.3v-2.207Z" transform="translate(-159.324 -131.722)" fill="#161615"/>
    <path id="Caminho_205" data-name="Caminho 205" d="M259.831,309.735a3.515,3.515,0,0,1-1.543-1.262,3.342,3.342,0,0,1-.547-1.9v-.16a.27.27,0,0,1,.305-.305h2.363c.2,0,.305.053.305.16v.177a1,1,0,0,0,.466.789,1.889,1.889,0,0,0,1.174.353,1.2,1.2,0,0,0,.852-.249.758.758,0,0,0,.257-.555.569.569,0,0,0-.321-.531,6.837,6.837,0,0,0-1.174-.434l-.466-.129a8.6,8.6,0,0,1-2.669-1.286,2.729,2.729,0,0,1-1.077-2.331,3.042,3.042,0,0,1,.547-1.793,3.491,3.491,0,0,1,1.5-1.2,5.315,5.315,0,0,1,2.147-.419,5.4,5.4,0,0,1,2.275.467,3.835,3.835,0,0,1,1.608,1.318,3.35,3.35,0,0,1,.587,1.945v.081a.27.27,0,0,1-.306.305h-2.364c-.2,0-.3-.043-.3-.129v-.129a1.166,1.166,0,0,0-.434-.876,1.682,1.682,0,0,0-1.174-.394,1.393,1.393,0,0,0-.812.209.669.669,0,0,0-.3.579.644.644,0,0,0,.217.491,2.255,2.255,0,0,0,.667.385q.449.184,1.383.474c.085.033.464.148,1.134.346a3.487,3.487,0,0,1,1.679,1.078,2.785,2.785,0,0,1,.675,1.889,3.137,3.137,0,0,1-.547,1.834,3.5,3.5,0,0,1-1.536,1.214,5.708,5.708,0,0,1-2.275.426,5.615,5.615,0,0,1-2.3-.442" transform="translate(-120.58 -139.725)" fill="#161615"/>
    <path id="Caminho_206" data-name="Caminho 206" d="M277.459,312.056a3.833,3.833,0,0,1-1.479-1.858,5.334,5.334,0,0,1,0-3.65,3.65,3.65,0,0,1,1.479-1.792,4.65,4.65,0,0,1,4.8.031,3.42,3.42,0,0,1,1.424,1.712,2.085,2.085,0,0,1,.144.547v.032a.287.287,0,0,1-.273.3l-2.363.37a.135.135,0,0,0-.04.008.071.071,0,0,1-.057-.008.215.215,0,0,1-.241-.193l-.064-.225a.842.842,0,0,0-.346-.458,1.052,1.052,0,0,0-.618-.185.941.941,0,0,0-.916.579,2.607,2.607,0,0,0-.193,1.11,3.027,3.027,0,0,0,.177,1.109.95.95,0,0,0,.932.643.934.934,0,0,0,.933-.659c.01-.032.021-.064.031-.1a.358.358,0,0,1,.121-.177.281.281,0,0,1,.233-.081l2.379.386c.2.032.291.145.258.338a2.931,2.931,0,0,1-.1.434,3.387,3.387,0,0,1-1.455,1.808,4.473,4.473,0,0,1-2.388.635,4.228,4.228,0,0,1-2.379-.667" transform="translate(-128.962 -142.27)" fill="#161615"/>
    <path id="Caminho_207" data-name="Caminho 207" d="M299.042,302.026a2.562,2.562,0,0,1,1.021,1.037,3.28,3.28,0,0,1,.379,1.616v5.177a.27.27,0,0,1-.305.305h-2.412a.27.27,0,0,1-.306-.305v-4.518a1.175,1.175,0,0,0-.249-.78.811.811,0,0,0-.651-.3.827.827,0,0,0-.667.3,1.172,1.172,0,0,0-.249.78v4.518a.27.27,0,0,1-.306.305h-2.412a.27.27,0,0,1-.305-.305V299.212a.27.27,0,0,1,.305-.305H295.3a.27.27,0,0,1,.306.305v3.313c0,.054.013.088.039.1s.057,0,.089-.04a2.088,2.088,0,0,1,1.865-.916,2.953,2.953,0,0,1,1.447.353" transform="translate(-136.878 -139.838)" fill="#161615"/>
    <path id="Caminho_208" data-name="Caminho 208" d="M310.476,311.9a3.861,3.861,0,0,1-1.391-2.219,4.781,4.781,0,0,1-.161-1.286,4.965,4.965,0,0,1,.193-1.431,3.847,3.847,0,0,1,1.424-2.1,4.154,4.154,0,0,1,2.531-.763,4.094,4.094,0,0,1,2.518.763A3.87,3.87,0,0,1,317,306.933a5.185,5.185,0,0,1,.193,1.431,5.931,5.931,0,0,1-.129,1.222,3.991,3.991,0,0,1-1.391,2.291,4.465,4.465,0,0,1-5.193.024m3.256-2.05a1.541,1.541,0,0,0,.353-.748,3.534,3.534,0,0,0,.064-.724,3.436,3.436,0,0,0-.081-.74q-.24-.948-1.012-.949-.8,0-1.013.949a2.693,2.693,0,0,0-.081.74,3.575,3.575,0,0,0,.064.724c.162.686.5,1.029,1.03,1.029a.871.871,0,0,0,.675-.281" transform="translate(-144.525 -142.27)" fill="#161615"/>
    <path id="Caminho_209" data-name="Caminho 209" d="M327.335,311.9a3.864,3.864,0,0,1-1.391-2.219,4.781,4.781,0,0,1-.161-1.286,4.984,4.984,0,0,1,.193-1.431,3.848,3.848,0,0,1,1.424-2.1,4.157,4.157,0,0,1,2.532-.763,4.091,4.091,0,0,1,2.517.763,3.873,3.873,0,0,1,1.406,2.066,5.186,5.186,0,0,1,.193,1.431,5.9,5.9,0,0,1-.129,1.222,3.994,3.994,0,0,1-1.391,2.291,4.466,4.466,0,0,1-5.193.024m3.256-2.05a1.541,1.541,0,0,0,.354-.748,3.54,3.54,0,0,0,.064-.724,3.471,3.471,0,0,0-.081-.74q-.24-.948-1.013-.949-.8,0-1.013.949a2.72,2.72,0,0,0-.08.74,3.538,3.538,0,0,0,.064.724q.241,1.029,1.029,1.029a.871.871,0,0,0,.675-.281" transform="translate(-152.412 -142.27)" fill="#161615"/>
    <path id="Caminho_210" data-name="Caminho 210" d="M343.066,309.856V299.212a.27.27,0,0,1,.306-.305h2.412a.27.27,0,0,1,.3.305v10.645a.269.269,0,0,1-.3.305h-2.412a.27.27,0,0,1-.306-.305" transform="translate(-160.498 -139.838)" fill="#161615"/>
    <line id="Linha_3" data-name="Linha 3" x2="67.734" transform="translate(80.653 175.161)" fill="#161615"/>
    <path id="Caminho_211" data-name="Caminho 211" d="M219.007,329.187H151.273a.323.323,0,1,1,0-.646h67.734a.323.323,0,0,1,0,.646" transform="translate(-70.619 -153.702)" fill="#161615"/>
    <path id="Caminho_212" data-name="Caminho 212" d="M139.287,265.4a.43.43,0,0,0-.437,0l-13.543,7.819a.437.437,0,0,0,0,.757l13.54,7.819a.437.437,0,0,0,.656-.378l0-15.639a.432.432,0,0,0-.218-.378" transform="translate(-58.52 -124.137)" fill="#161615"/>
    <path id="Caminho_213" data-name="Caminho 213" d="M137.546,291.691a.433.433,0,0,0-.218-.379l-13.54-7.819a.437.437,0,0,0-.656.378l0,15.639a.437.437,0,0,0,.656.378l13.543-7.819a.433.433,0,0,0,.219-.378" transform="translate(-57.604 -132.6)" fill="#161615"/>
    <path id="Caminho_214" data-name="Caminho 214" d="M168.624,294.61v-9.376l-11.987,6.92a.437.437,0,0,0,0,.757l9.448,5.456c.133-.012.272-.022.393-.036,1.684-.19,2.146-.99,2.146-3.722" transform="translate(-73.178 -133.442)" fill="#161615"/>
    <path id="Caminho_215" data-name="Caminho 215" d="M168.221,272.969l-13.1-7.566a.431.431,0,0,0-.218-.06.438.438,0,0,0-.219.06.432.432,0,0,0-.219.378l0,15.638a.437.437,0,0,0,.656.378l12.592-7.27v-.517a1.325,1.325,0,0,1,.513-1.043" transform="translate(-72.262 -124.137)" fill="#161615"/>
    <path id="Caminho_216" data-name="Caminho 216" d="M164.151,311.9c-.512-.048-1.181-.11-2.047-.177a1.338,1.338,0,0,1-1.23-1.328v-2.964a1.334,1.334,0,0,1,1.332-1.333c.251,0,.484,0,.717-.006l-7.805-4.507a.437.437,0,0,0-.656.378l0,15.639a.437.437,0,0,0,.656.378l10.366-5.985h-.016c-.283,0-.671-.036-1.314-.1" transform="translate(-72.262 -141.062)" fill="#161615"/>
    <path id="Caminho_217" data-name="Caminho 217" d="M139.287,301.582a.43.43,0,0,0-.437,0L125.307,309.4a.437.437,0,0,0,0,.757l13.54,7.819a.437.437,0,0,0,.656-.378l0-15.638a.433.433,0,0,0-.219-.379" transform="translate(-58.52 -141.062)" fill="#161615"/>
    <path id="Caminho_218" data-name="Caminho 218" d="M14.16,284.046a3.4,3.4,0,0,0-1.967-2.379l1.128-1.8A5.576,5.576,0,0,1,15.7,287.6a5.093,5.093,0,0,1-3.329,2.4,5.141,5.141,0,0,1-4.1-.618,5.3,5.3,0,0,1-2.408-3.374,5.458,5.458,0,0,1,.87-4.595l1.919,1.006a3.357,3.357,0,0,0-.674,2.965,3.167,3.167,0,0,0,1.354,1.958,2.958,2.958,0,0,0,2.444.353,3.126,3.126,0,0,0,2.039-1.4,2.879,2.879,0,0,0,.345-2.26" transform="translate(-2.661 -130.932)" fill="#161615"/>
    <path id="Caminho_219" data-name="Caminho 219" d="M1.2,259.969l2.036-.278.7,5.095,2.108-.289-.628-4.582,1.947-.267.628,4.583,2.123-.291-.721-5.256,2.021-.277,1.033,7.54-10.234,1.4Z" transform="translate(-0.56 -120.891)" fill="#161615"/>
    <path id="Caminho_220" data-name="Caminho 220" d="M3.414,235.342A3.042,3.042,0,0,1,6.685,237.2l3.6-2.737.1,2.836-3.218,2.4.054,1.6,3.294-.11.077,2.3-10.324.345-.13-3.915a5.617,5.617,0,0,1,.7-3.461,3.137,3.137,0,0,1,2.58-1.113m1.319,2.735A1.561,1.561,0,0,0,3.5,237.69a1.306,1.306,0,0,0-1.13.482,2.842,2.842,0,0,0-.259,1.561l.057,1.727,3.058-.1-.056-1.684a2.479,2.479,0,0,0-.437-1.6" transform="translate(-0.06 -109.689)" fill="#161615"/>
    <path id="Caminho_221" data-name="Caminho 221" d="M2.328,216.586l8.318.537-.148,2.3-8.318-.538-.188,2.921L0,221.678l.526-8.141,1.99.129Z" transform="translate(0 -99.9)" fill="#161615"/>
    <rect id="Retângulo_91" data-name="Retângulo 91" width="2.305" height="10.33" transform="matrix(0.139, -0.99, 0.99, 0.139, 1.061, 109.477)" fill="#161615"/>
    <path id="Caminho_222" data-name="Caminho 222" d="M5.624,179.028l1.979.43-1.018,4.679,2.181.474.967-4.447,1.979.43-.967,4.447,3.957.861-.49,2.253-10.094-2.2Z" transform="translate(-1.926 -83.755)" fill="#161615"/>
    <rect id="Retângulo_92" data-name="Retângulo 92" width="2.305" height="10.33" transform="matrix(0.285, -0.958, 0.958, 0.285, 4.909, 90.97)" fill="#161615"/>
    <path id="Caminho_223" data-name="Caminho 223" d="M23.786,149.353a3.4,3.4,0,0,0-.244-3.077l1.956-.823a5.575,5.575,0,0,1-2.494,7.7,5.094,5.094,0,0,1-4.106.056,5.143,5.143,0,0,1-3-2.86,5.3,5.3,0,0,1-.033-4.145,5.456,5.456,0,0,1,3.351-3.261l.993,1.926a3.362,3.362,0,0,0-2.255,2.039,3.173,3.173,0,0,0-.016,2.381,2.961,2.961,0,0,0,1.8,1.693,3.124,3.124,0,0,0,2.472.028,2.874,2.874,0,0,0,1.579-1.652" transform="translate(-7.232 -66.871)" fill="#161615"/>
    <path id="Caminho_224" data-name="Caminho 224" d="M36.9,128.245l-2.422-.18-2,3.84,1.534,1.883-1.134,2.175-7.1-8.733,1.031-1.979,11.223.818Zm-7.876-.59,2.059,2.541,1.2-2.293Z" transform="translate(-12.061 -58.597)" fill="#161615"/>
    <path id="Caminho_225" data-name="Caminho 225" d="M46.408,106.335a3.4,3.4,0,0,0,.429-3.056l2.087-.38a5.554,5.554,0,0,1-.383,4.049l.375.714a1.177,1.177,0,0,1,1.468-.172,1.45,1.45,0,0,1,.629,1.053,1.9,1.9,0,0,1-.343,1.362,2.889,2.889,0,0,1-1.257,1.026l-.743-1.174a.94.94,0,0,0,.554-.323.548.548,0,0,0,.107-.4.441.441,0,0,0-.2-.3.459.459,0,0,0-.393-.05.617.617,0,0,0-.364.263,1.235,1.235,0,0,0-.181.51l-.621-1.145a5.125,5.125,0,0,1-3.219,1.632,5.36,5.36,0,0,1-3.672-.985,4.979,4.979,0,0,1-2.193-3.364,5.3,5.3,0,0,1,.866-4.054,5.457,5.457,0,0,1,3.978-2.458l.553,2.1a3.358,3.358,0,0,0-2.643,1.5A3.166,3.166,0,0,0,40.712,105a2.96,2.96,0,0,0,1.388,2.042,3.124,3.124,0,0,0,2.406.563,2.877,2.877,0,0,0,1.9-1.27" transform="translate(-17.962 -46.354)" fill="#161615"/>
    <path id="Caminho_226" data-name="Caminho 226" d="M50.054,80.244q-.295.35.3.834l-1.01,1.2a2.834,2.834,0,0,1-1.024-1.491,1.479,1.479,0,0,1,.309-1.353,2.328,2.328,0,0,1,1.048-.614,2.8,2.8,0,0,0,.84-.366q.3-.35-.3-.834l1.009-1.2a2.836,2.836,0,0,1,1.024,1.491,1.481,1.481,0,0,1-.309,1.353,2.434,2.434,0,0,1-1.054.619,3.372,3.372,0,0,0-.834.36m11.9,4.71-2.326-.7-2.79,3.311,1.087,2.173L56.342,91.61,51.318,81.541l1.438-1.706,10.775,3.242Zm-7.558-2.291,1.456,2.927,1.667-1.978Z" transform="translate(-22.585 -35.752)" fill="#161615"/>
    <path id="Caminho_227" data-name="Caminho 227" d="M81.194,67.088a5.628,5.628,0,0,1-5.615,5.29,5.406,5.406,0,0,1-5.219-5.54,5.627,5.627,0,0,1,5.615-5.289,5.4,5.4,0,0,1,5.218,5.539m-3.174-2.227a3.382,3.382,0,0,0-2.262-1.108,2.924,2.924,0,0,0-3.173,2.989,3.567,3.567,0,0,0,3.228,3.426,2.938,2.938,0,0,0,3.173-2.989,3.354,3.354,0,0,0-.965-2.318" transform="translate(-32.915 -28.794)" fill="#161615"/>
    <path id="Caminho_228" data-name="Caminho 228" d="M104,38.977a3.52,3.52,0,0,1,2.494,1.735,3.361,3.361,0,0,1,.652,2.943,5.426,5.426,0,0,1-2.317,2.649l-1.136.773,1.62,2.383-1.906,1.3L97.6,42.216l3.018-2.053A5.3,5.3,0,0,1,104,38.977m.887,4.312a1.988,1.988,0,0,0-.423-1.357,1.441,1.441,0,0,0-1.161-.747,2.964,2.964,0,0,0-1.6.632l-1.088.74,1.954,2.871,1.283-.873a2.058,2.058,0,0,0,1.033-1.266" transform="translate(-45.661 -18.227)" fill="#161615"/>
    <path id="Caminho_229" data-name="Caminho 229" d="M126.667,28.595a3.044,3.044,0,0,1-.213,3.755l4.054,2.016-2.5,1.343-3.577-1.818-1.406.756,1.56,2.9-2.03,1.091-4.891-9.1,3.449-1.854a5.619,5.619,0,0,1,3.411-.911,3.138,3.138,0,0,1,2.144,1.817m-1.867,2.4a1.56,1.56,0,0,0-.2-1.277,1.307,1.307,0,0,0-.933-.8,2.834,2.834,0,0,0-1.513.461l-1.524.818,1.449,2.694,1.484-.8a2.475,2.475,0,0,0,1.236-1.1" transform="translate(-55.047 -12.509)" fill="#161615"/>
    <path id="Caminho_230" data-name="Caminho 230" d="M152.346,23.369a5.629,5.629,0,0,1-7.165,2.859,5.1,5.1,0,0,1-2.865-2.955,5.1,5.1,0,0,1,.045-4.115,5.628,5.628,0,0,1,7.166-2.858,5.106,5.106,0,0,1,2.865,2.954,5.1,5.1,0,0,1-.045,4.115m-2.135-3.237a3.379,3.379,0,0,0-1.7-1.861,2.923,2.923,0,0,0-4.049,1.616,3.567,3.567,0,0,0,1.744,4.372,2.938,2.938,0,0,0,4.049-1.616,3.355,3.355,0,0,0-.046-2.511" transform="translate(-66.388 -7.431)" fill="#161615"/>
    <path id="Caminho_231" data-name="Caminho 231" d="M173.357,7.106l.545,1.95-4.612,1.287.6,2.149,4.384-1.224.544,1.95-4.384,1.224,1.088,3.9-2.22.62-2.778-9.949Z" transform="translate(-77.905 -3.325)" fill="#161615"/>
    <rect id="Retângulo_93" data-name="Retângulo 93" width="2.305" height="10.33" transform="translate(99.815 2.844) rotate(-11.26)" fill="#161615"/>
    <path id="Caminho_232" data-name="Caminho 232" d="M203.857,3.994a.891.891,0,0,0-.244.758.819.819,0,0,0,.489.664,7.44,7.44,0,0,0,1.938.4,5.286,5.286,0,0,1,2.4.806,2.683,2.683,0,0,1,1.059,2,2.79,2.79,0,0,1-.766,2.362,4.153,4.153,0,0,1-2.618,1.185,6.344,6.344,0,0,1-4.6-1.278l1.164-1.837a4.89,4.89,0,0,0,3.24,1.085,1.62,1.62,0,0,0,.958-.39.879.879,0,0,0,.271-.777.86.86,0,0,0-.47-.688,5.019,5.019,0,0,0-1.577-.368,6.617,6.617,0,0,1-2.752-.794,2.634,2.634,0,0,1-1.086-2.042,2.673,2.673,0,0,1,.779-2.378A4.252,4.252,0,0,1,204.559,1.6a6.334,6.334,0,0,1,2.1.105,5.552,5.552,0,0,1,1.91.783L207.606,4.3a4.541,4.541,0,0,0-2.88-.681,1.392,1.392,0,0,0-.87.379" transform="translate(-94.141 -0.726)" fill="#161615"/>
    <path id="Caminho_233" data-name="Caminho 233" d="M225.821,2.321a.894.894,0,0,0-.316.732.82.82,0,0,0,.423.707,7.454,7.454,0,0,0,1.891.584,5.281,5.281,0,0,1,2.308,1.033,2.68,2.68,0,0,1,.861,2.094A2.787,2.787,0,0,1,230,9.748a4.153,4.153,0,0,1-2.72.928,6.347,6.347,0,0,1-4.46-1.715l1.335-1.716a4.89,4.89,0,0,0,3.122,1.391,1.62,1.62,0,0,0,.99-.3.876.876,0,0,0,.345-.747.861.861,0,0,0-.4-.73,4.989,4.989,0,0,0-1.534-.519,6.618,6.618,0,0,1-2.663-1.054,2.634,2.634,0,0,1-.884-2.138,2.673,2.673,0,0,1,1-2.293A4.255,4.255,0,0,1,226.75,0a6.346,6.346,0,0,1,2.077.307,5.529,5.529,0,0,1,1.826.963l-1.128,1.711a4.55,4.55,0,0,0-2.8-.955,1.391,1.391,0,0,0-.9.294" transform="translate(-104.242 0)" fill="#161615"/>
    <rect id="Retângulo_94" data-name="Retângulo 94" width="10.33" height="2.305" transform="translate(130.509 10.636) rotate(-86.943)" fill="#161615"/>
    <path id="Caminho_234" data-name="Caminho 234" d="M266.44,11.855a5.628,5.628,0,0,1-7.637-1.089,5.1,5.1,0,0,1-1.014-3.988,5.106,5.106,0,0,1,2.088-3.546,5.63,5.63,0,0,1,7.637,1.089,5.1,5.1,0,0,1,1.013,3.989,5.1,5.1,0,0,1-2.088,3.546m-.24-3.87a3.378,3.378,0,0,0-.545-2.459,2.924,2.924,0,0,0-4.316-.616,3.381,3.381,0,0,0-1.211,2.208,3.353,3.353,0,0,0,.546,2.452,2.939,2.939,0,0,0,4.316.616,3.353,3.353,0,0,0,1.21-2.2" transform="translate(-120.573 -1.028)" fill="#161615"/>
    <path id="Caminho_235" data-name="Caminho 235" d="M292.871,7.937l2.228.594-2.661,9.981-2.227-.593L287.123,10.4l-1.667,6.255-2.228-.594,2.661-9.981,2.085.556,3.186,7.731Z" transform="translate(-132.503 -2.842)" fill="#161615"/>
    <path id="Caminho_236" data-name="Caminho 236" d="M313.743,27.2l-.077-2.428-4.03-1.585-1.711,1.725-2.282-.9,7.934-7.98,2.077.817.373,11.246Zm-.246-7.894-2.308,2.316,2.406.946Z" transform="translate(-142.99 -7.503)" fill="#161615"/>
    <path id="Caminho_237" data-name="Caminho 237" d="M329.982,33.076l4.712-9.192,2.052,1.052L332.97,32.3l3.919,2.009-.937,1.828Z" transform="translate(-154.377 -11.174)" fill="#161615"/>
    <path id="Caminho_238" data-name="Caminho 238" d="M377.639,62.622a2.068,2.068,0,1,1,.723,1.4,1.981,1.981,0,0,1-.723-1.4" transform="translate(-176.669 -28.254)" fill="#161615"/>
    <path id="Caminho_239" data-name="Caminho 239" d="M422.146,109.936l1.273,1.94-3.063,2.012a5.424,5.424,0,0,1-3.769-2.617,5.255,5.255,0,0,1-.837-4.021,5.46,5.46,0,0,1,6.4-4.168,5.239,5.239,0,0,1,3.369,2.331,5.615,5.615,0,0,1,.9,4.033l-2.1-.052a4.552,4.552,0,0,0,0-1.527,3.427,3.427,0,0,0-.5-1.182,3.028,3.028,0,0,0-1.964-1.362,3.569,3.569,0,0,0-3.948,2.549,2.788,2.788,0,0,0,.4,2.206,3.959,3.959,0,0,0,1.478,1.416Z" transform="translate(-194.454 -48.165)" fill="#161615"/>
    <path id="Caminho_240" data-name="Caminho 240" d="M435.39,131.4a3.041,3.041,0,0,1-3.75-.292l-2.1,4.009-1.289-2.527,1.893-3.539-.726-1.421-2.935,1.5-1.049-2.054,9.2-4.7,1.78,3.488a5.616,5.616,0,0,1,.839,3.43,3.136,3.136,0,0,1-1.863,2.1m-2.356-1.917a1.561,1.561,0,0,0,1.281-.172,1.308,1.308,0,0,0,.819-.915,2.843,2.843,0,0,0-.429-1.524l-.787-1.54-2.724,1.391.766,1.5a2.476,2.476,0,0,0,1.074,1.26" transform="translate(-199.032 -57.252)" fill="#161615"/>
    <path id="Caminho_241" data-name="Caminho 241" d="M440.071,150.415a1.886,1.886,0,0,0-.121,1.7,1.866,1.866,0,0,0,1.218,1.19,3.065,3.065,0,0,0,2.032-.162l5.335-2.021.817,2.156-5.4,2.047a4.587,4.587,0,0,1-3.667.061,4.791,4.791,0,0,1-2.246-5.951,4.571,4.571,0,0,1,2.777-2.388l5.4-2.047.817,2.156-5.334,2.021a3.04,3.04,0,0,0-1.627,1.232" transform="translate(-204.765 -67.839)" fill="#161615"/>
    <path id="Caminho_242" data-name="Caminho 242" d="M454.6,176.94a3.519,3.519,0,0,1-2.471,1.768,3.358,3.358,0,0,1-2.991-.372,5.424,5.424,0,0,1-1.718-3.072l-.348-1.33-2.789.728-.582-2.231,10-2.609.922,3.531a5.3,5.3,0,0,1-.019,3.586m-4.359-.61a1.985,1.985,0,0,0,1.42.057,1.44,1.44,0,0,0,1.093-.843,2.96,2.96,0,0,0-.059-1.718l-.333-1.272-3.36.878.392,1.5a2.056,2.056,0,0,0,.846,1.4" transform="translate(-207.579 -79.448)" fill="#161615"/>
    <path id="Caminho_243" data-name="Caminho 243" d="M452.045,203.147a5.629,5.629,0,0,1-1.11-7.633,5.406,5.406,0,0,1,7.532-1.1,5.628,5.628,0,0,1,1.11,7.634,5.4,5.4,0,0,1-7.531,1.095m3.646-1.321a3.379,3.379,0,0,0,2.2-1.217,2.923,2.923,0,0,0-.627-4.314,3.567,3.567,0,0,0-4.658.677,2.939,2.939,0,0,0,.627,4.314,3.352,3.352,0,0,0,2.453.539" transform="translate(-210.483 -90.456)" fill="#161615"/>
    <path id="Caminho_244" data-name="Caminho 244" d="M460.769,232.248l1.98.016-.043,5.379-6.738-.053a3.671,3.671,0,0,1-2.756-.974,3.386,3.386,0,0,1-.9-2.454,4.383,4.383,0,0,1,1.459-3.239l1.645,1.209a2.681,2.681,0,0,0-1.02,1.943,1.1,1.1,0,0,0,.37.838,1.618,1.618,0,0,0,1.128.357l4.847.038Z" transform="translate(-211.608 -108.033)" fill="#161615"/>
    <path id="Caminho_245" data-name="Caminho 245" d="M456.4,261.068l-5.276-3.441.163-1.364,5.934-2.092-6.457-.768.272-2.29,10.258,1.221-.368,3.1-5.95,1.971,5.32,3.327-.367,3.082-10.257-1.22.272-2.289Z" transform="translate(-210.373 -117.479)" fill="#161615"/>
    <path id="Caminho_246" data-name="Caminho 246" d="M446.671,280.4l10.058,2.352L456.2,285l-8.058-1.884-1,4.288-2-.468Z" transform="translate(-208.253 -131.182)" fill="#161615"/>
    <path id="Caminho_247" data-name="Caminho 247" d="M436,315.181a4.433,4.433,0,0,1,.117-3.043,4.168,4.168,0,0,1,1.759-2.19,2.759,2.759,0,0,1,2.509-.141q1.513.6,1.887,3.077a5.608,5.608,0,0,1,1.229-.279,2.367,2.367,0,0,1,1.064.181,2.233,2.233,0,0,1,1.455,1.548,3.541,3.541,0,0,1-.168,2.245,3.5,3.5,0,0,1-1.375,1.739,2.1,2.1,0,0,1-1.992.161q-1.347-.531-1.729-2.951-1.267.392-1.843.609a6.218,6.218,0,0,0,1.128,1.047l-1.789,1.154a9.684,9.684,0,0,1-1.306-1.4l-1.883.831-.757-1.87Zm2.555-3.266a1.724,1.724,0,0,0-.722.907,2.362,2.362,0,0,0,.069,1.6q1.454-.588,2.607-.976-.243-1.319-1-1.616a1.048,1.048,0,0,0-.954.086m5.673,4.025a.855.855,0,0,0,0-.627.788.788,0,0,0-.483-.468,2.175,2.175,0,0,0-1.269.136q.144,1.248.626,1.437a.8.8,0,0,0,.7-.01.9.9,0,0,0,.423-.469" transform="translate(-203.184 -144.828)" fill="#161615"/>
    <path id="Caminho_248" data-name="Caminho 248" d="M432.032,343.74l1.718.983-2.672,4.669-5.849-3.347a3.664,3.664,0,0,1-1.924-2.2,3.38,3.38,0,0,1,.419-2.577,4.39,4.39,0,0,1,2.859-2.111l.842,1.861a2.674,2.674,0,0,0-1.841,1.195,1.093,1.093,0,0,0-.087.912,1.615,1.615,0,0,0,.808.863l4.208,2.408Z" transform="translate(-197.991 -158.669)" fill="#161615"/>
    <path id="Caminho_249" data-name="Caminho 249" d="M410.988,366.684l-2.906-5.588.811-1.109,6.2,1.092-5.248-3.841,1.362-1.86,8.336,6.1L417.7,364l-6.15-1.2,3,5.51-1.833,2.505-8.336-6.1,1.362-1.86Z" transform="translate(-189.182 -166.258)" fill="#161615"/>
    <path id="Caminho_250" data-name="Caminho 250" d="M395.149,378.8l7.6,7-1.562,1.7-6.087-5.606-2.984,3.239L390.6,383.73Z" transform="translate(-182.737 -177.213)" fill="#161615"/>
    <path id="Caminho_251" data-name="Caminho 251" d="M370.658,405.775a3.4,3.4,0,0,0-1.314,2.793l-2.107-.255a5.575,5.575,0,0,1,5.983-5.445,5.458,5.458,0,0,1,4.78,5.959,5.3,5.3,0,0,1-2.027,3.616,5.46,5.46,0,0,1-4.527,1.17l.093-2.165a3.36,3.36,0,0,0,2.969-.652,3.173,3.173,0,0,0,1.2-2.06,2.962,2.962,0,0,0-.722-2.362,3.125,3.125,0,0,0-2.132-1.251,2.881,2.881,0,0,0-2.191.651" transform="translate(-171.806 -188.464)" fill="#161615"/>
    <path id="Caminho_252" data-name="Caminho 252" d="M347.651,421.27a5.627,5.627,0,0,1,6.5-4.158,5.406,5.406,0,0,1,4.1,6.411,5.628,5.628,0,0,1-6.5,4.157,5.4,5.4,0,0,1-4.1-6.41m2.707,2.777a3.383,3.383,0,0,0,2.017,1.508,2.923,2.923,0,0,0,3.672-2.35,3.567,3.567,0,0,0-2.536-3.965,2.939,2.939,0,0,0-3.672,2.35,3.346,3.346,0,0,0,.519,2.457" transform="translate(-162.576 -195.084)" fill="#161615"/>
    <path id="Caminho_253" data-name="Caminho 253" d="M326.263,437.435a3.042,3.042,0,0,1,.355-3.744l-3.974-2.168,2.549-1.247,3.506,1.953,1.433-.7-1.449-2.96,2.07-1.014,4.542,9.278-3.518,1.722a5.618,5.618,0,0,1-3.444.781,3.136,3.136,0,0,1-2.072-1.9m1.956-2.323a1.562,1.562,0,0,0,.151,1.284,1.31,1.31,0,0,0,.9.834,2.839,2.839,0,0,0,1.53-.4l1.554-.76-1.346-2.748-1.513.741a2.478,2.478,0,0,0-1.278,1.053" transform="translate(-150.944 -200.024)" fill="#161615"/>
    <path id="Caminho_254" data-name="Caminho 254" d="M308.242,448.665a3.519,3.519,0,0,1-1.993-2.293,3.361,3.361,0,0,1,.088-3.013,5.424,5.424,0,0,1,2.9-2l1.29-.471-.988-2.707,2.166-.79,3.543,9.7-3.429,1.251a5.3,5.3,0,0,1-3.572.321m.2-4.4a1.985,1.985,0,0,0,.077,1.419,1.441,1.441,0,0,0,.943,1.01,2.96,2.96,0,0,0,1.7-.221l1.235-.451-1.191-3.262-1.457.532a2.059,2.059,0,0,0-1.312.974" transform="translate(-143.129 -204.625)" fill="#161615"/>
    <path id="Caminho_255" data-name="Caminho 255" d="M280.146,448.794a5.629,5.629,0,0,1,7.5-1.823,5.4,5.4,0,0,1,1.8,7.395,5.629,5.629,0,0,1-7.5,1.824,5.407,5.407,0,0,1-1.8-7.4M281.8,452.3a3.382,3.382,0,0,0,1.419,2.081,2.923,2.923,0,0,0,4.236-1.03,3.567,3.567,0,0,0-1.112-4.573,2.938,2.938,0,0,0-4.235,1.03,3.353,3.353,0,0,0-.307,2.493" transform="translate(-130.691 -208.756)" fill="#161615"/>
    <path id="Caminho_256" data-name="Caminho 256" d="M255.344,458.118a3.044,3.044,0,0,1,1.552-3.426l-3.054-3.341,2.815-.352,2.683,2.986,1.584-.2-.409-3.27,2.288-.286,1.282,10.25-3.886.486a5.613,5.613,0,0,1-3.51-.38,3.135,3.135,0,0,1-1.344-2.468m2.6-1.562a1.557,1.557,0,0,0-.273,1.262,1.3,1.3,0,0,0,.582,1.082,2.838,2.838,0,0,0,1.578.115l1.715-.215-.38-3.035-1.672.209a2.479,2.479,0,0,0-1.55.581" transform="translate(-118.756 -210.633)" fill="#161615"/>
    <path id="Caminho_257" data-name="Caminho 257" d="M231.527,452.806l1,2.216,4.329-.07.925-2.246,2.453-.038-4.3,10.4-2.231.036-4.627-10.258Zm3.233,7.206,1.253-3.021-2.586.042Z" transform="translate(-107.168 -211.773)" fill="#161615"/>
    <path id="Caminho_258" data-name="Caminho 258" d="M212.952,460.333l.652-8.31,2.3.18-.652,8.31,2.917.229-.156,1.989-8.132-.639.156-1.989Z" transform="translate(-98.188 -211.471)" fill="#161615"/>
    <path id="Caminho_259" data-name="Caminho 259" d="M187.968,458.484l.354-2.023,5.066.888.367-2.1-4.556-.8.339-1.936,4.556.8.37-2.111-5.226-.915.352-2.009,7.5,1.313L195.3,459.769Z" transform="translate(-87.938 -209.721)" fill="#161615"/>
    <path id="Caminho_260" data-name="Caminho 260" d="M160.329,449.6a.893.893,0,0,0,.543-.583.818.818,0,0,0-.161-.808,7.441,7.441,0,0,0-1.584-1.186,5.288,5.288,0,0,1-1.826-1.749,2.681,2.681,0,0,1-.107-2.261,2.787,2.787,0,0,1,1.7-1.812,4.146,4.146,0,0,1,2.874.041,6.345,6.345,0,0,1,3.623,3.114l-1.834,1.167a4.892,4.892,0,0,0-2.472-2.36,1.621,1.621,0,0,0-1.033-.054.878.878,0,0,0-.576.588.859.859,0,0,0,.133.822,5.009,5.009,0,0,0,1.271,1,6.623,6.623,0,0,1,2.154,1.888,2.637,2.637,0,0,1,.114,2.311,2.674,2.674,0,0,1-1.717,1.821,4.245,4.245,0,0,1-2.755-.072,6.323,6.323,0,0,1-1.852-.987,5.552,5.552,0,0,1-1.4-1.52l1.637-1.233a4.548,4.548,0,0,0,2.317,1.842,1.392,1.392,0,0,0,.949.026" transform="translate(-72.713 -206.299)" fill="#161615"/>
    <path id="Caminho_261" data-name="Caminho 261" d="M138.612,434.664a3.4,3.4,0,0,0-3.086.09l-.724-1.995a5.575,5.575,0,0,1,7.561,2.877,5.092,5.092,0,0,1-.15,4.1,5.143,5.143,0,0,1-3.007,2.854,5.3,5.3,0,0,1-4.141-.176,5.459,5.459,0,0,1-3.089-3.509l1.974-.9a3.36,3.36,0,0,0,1.924,2.354,3.166,3.166,0,0,0,2.377.136,2.962,2.962,0,0,0,1.781-1.71,3.128,3.128,0,0,0,.152-2.467,2.882,2.882,0,0,0-1.571-1.662" transform="translate(-61.742 -202.192)" fill="#161615"/>
    <path id="Caminho_262" data-name="Caminho 262" d="M110.979,428.783l-1.986-1.17,5.246-8.9,1.986,1.171-2.063,3.5,3.539,2.087,2.063-3.5,1.987,1.171-5.246,8.9-1.986-1.171,2.192-3.717-3.539-2.087Z" transform="translate(-50.99 -195.888)" fill="#161615"/>
    <path id="Caminho_263" data-name="Caminho 263" d="M93.558,406.585a5.628,5.628,0,0,1,6.143,4.667,5.405,5.405,0,0,1-4.6,6.06,5.629,5.629,0,0,1-6.142-4.666,5.406,5.406,0,0,1,4.6-6.061m-1.673,3.5a3.375,3.375,0,0,0-.72,2.413,2.924,2.924,0,0,0,3.471,2.638,3.567,3.567,0,0,0,2.847-3.749,2.938,2.938,0,0,0-3.471-2.637,3.348,3.348,0,0,0-2.127,1.335" transform="translate(-41.588 -190.194)" fill="#161615"/>
    <path id="Caminho_264" data-name="Caminho 264" d="M73.628,388.824a5.63,5.63,0,0,1,5.537,5.371,5.405,5.405,0,0,1-5.3,5.463,5.627,5.627,0,0,1-5.537-5.371,5.406,5.406,0,0,1,5.3-5.463M71.546,392.1a3.38,3.38,0,0,0-1,2.309,2.922,2.922,0,0,0,3.129,3.035,3.567,3.567,0,0,0,3.277-3.378,2.938,2.938,0,0,0-3.129-3.036,3.359,3.359,0,0,0-2.272,1.07" transform="translate(-31.966 -181.905)" fill="#161615"/>
    <path id="Caminho_265" data-name="Caminho 265" d="M65.322,375.175,57.4,381.808l-1.48-1.767,6.344-5.314-2.828-3.376,1.575-1.319Z" transform="translate(-26.162 -173.113)" fill="#161615"/>
    <path id="Caminho_266" data-name="Caminho 266" d="M35.178,337.256a2.069,2.069,0,1,1-.128-1.569,1.979,1.979,0,0,1,.128,1.569" transform="translate(-14.577 -156.517)" fill="#161615"/>
    <path id="Caminho_267" data-name="Caminho 267" d="M150.71,247.349a98.223,98.223,0,1,1,69.454-28.769,97.58,97.58,0,0,1-69.454,28.769m0-194.64a96.418,96.418,0,1,0,96.418,96.417A96.527,96.527,0,0,0,150.71,52.709" transform="translate(-24.556 -23.815)" fill="#161615"/>
  </g>
</svg>
