<svg xmlns="http://www.w3.org/2000/svg" width="25" height="27.777" viewBox="0 0 25 27.777">
  <path id="ic_assignment_24px" d="M25.222,3.778H19.417a4.15,4.15,0,0,0-7.833,0H5.778A2.786,2.786,0,0,0,3,6.556V26a2.786,2.786,0,0,0,2.778,2.778H25.222A2.786,2.786,0,0,0,28,26V6.556A2.786,2.786,0,0,0,25.222,3.778Zm-9.722,0a1.389,1.389,0,1,1-1.389,1.389A1.393,1.393,0,0,1,15.5,3.778Zm2.778,19.444H8.556V20.444h9.722Zm4.167-5.556H8.556V14.889H22.444Zm0-5.556H8.556V9.333H22.444Z" transform="translate(-3 -1)" fill="#fff"/>
</svg>
