<svg xmlns="http://www.w3.org/2000/svg" width="28.859" height="28.859" viewBox="0 0 28.859 28.859">
  <path id="Caminho_34" data-name="Caminho 34" d="M617.288,298.208q0,4.187-.1,6.023a12.158,12.158,0,0,1-.548,3.188,7.535,7.535,0,0,1-4.574,4.574,12.127,12.127,0,0,1-3.189.548q-1.836.1-6.023.1t-6.023-.1a10.521,10.521,0,0,1-3.188-.612,6.869,6.869,0,0,1-2.8-1.707,7.516,7.516,0,0,1-1.772-2.8,12.164,12.164,0,0,1-.547-3.188q-.1-1.836-.1-6.023t.1-6.023a12.165,12.165,0,0,1,.547-3.189,7.54,7.54,0,0,1,4.574-4.574,12.128,12.128,0,0,1,3.188-.548q1.836-.1,6.023-.1t6.023.1a12.128,12.128,0,0,1,3.189.548A7.536,7.536,0,0,1,616.644,289a13.128,13.128,0,0,1,.58,3.221Q617.288,294.02,617.288,298.208Zm-2.641,5.024q.065-1.417.065-3.994v-2.061q0-2.642-.065-3.994a12.928,12.928,0,0,0-.515-3.479,4.652,4.652,0,0,0-2.77-2.77,12.931,12.931,0,0,0-3.479-.515q-1.417-.065-3.994-.065h-2.061q-2.577,0-3.995.065a13.565,13.565,0,0,0-3.478.515,4.652,4.652,0,0,0-2.77,2.77,12.961,12.961,0,0,0-.516,3.479q-.063,1.416-.064,3.994v2.061q0,2.577.064,3.994a13.6,13.6,0,0,0,.516,3.479,4.884,4.884,0,0,0,2.77,2.77,13.563,13.563,0,0,0,3.478.515q1.417.065,3.995.065h2.061q2.642,0,3.994-.065a12.93,12.93,0,0,0,3.479-.515,4.888,4.888,0,0,0,2.77-2.77A13.562,13.562,0,0,0,614.647,303.232ZM606.563,291.8a7.422,7.422,0,0,1,2.705,2.705,7.368,7.368,0,0,1,0,7.408,7.422,7.422,0,0,1-2.705,2.705,7.367,7.367,0,0,1-7.408,0,7.423,7.423,0,0,1-2.706-2.705,7.372,7.372,0,0,1,0-7.408,7.423,7.423,0,0,1,2.706-2.705,7.368,7.368,0,0,1,7.408,0Zm-.29,9.824a4.821,4.821,0,1,0-3.414,1.417A4.654,4.654,0,0,0,606.273,301.622Zm5.54-12.369a1.731,1.731,0,1,0-1.224,2.963,1.568,1.568,0,0,0,1.191-.516,2,2,0,0,0,.547-1.224A1.674,1.674,0,0,0,611.813,289.253Z" transform="translate(-588.429 -283.778)" fill="#fff"/>
</svg>
