<svg xmlns="http://www.w3.org/2000/svg" width="22" height="22" viewBox="0 0 22 22">
  <path id="Caminho_133" data-name="Caminho 133" d="M610.429,294.778q0,3.192-.073,4.592a9.266,9.266,0,0,1-.418,2.431,5.744,5.744,0,0,1-3.486,3.486,9.244,9.244,0,0,1-2.431.418q-1.4.073-4.592.073t-4.592-.073a8.02,8.02,0,0,1-2.431-.466,5.236,5.236,0,0,1-2.136-1.3,5.73,5.73,0,0,1-1.351-2.136,9.272,9.272,0,0,1-.417-2.431q-.074-1.4-.073-4.592t.073-4.592a9.273,9.273,0,0,1,.417-2.431,5.747,5.747,0,0,1,3.487-3.486,9.244,9.244,0,0,1,2.431-.418q1.4-.074,4.592-.073t4.592.073a9.244,9.244,0,0,1,2.431.418,5.745,5.745,0,0,1,3.486,3.486,10.008,10.008,0,0,1,.442,2.455Q610.428,291.586,610.429,294.778Zm-2.013,3.83q.049-1.081.049-3.045v-1.571q0-2.014-.049-3.045a9.856,9.856,0,0,0-.392-2.652,3.546,3.546,0,0,0-2.112-2.112,9.859,9.859,0,0,0-2.652-.392q-1.08-.049-3.045-.049h-1.571q-1.964,0-3.045.049a10.341,10.341,0,0,0-2.651.392,3.547,3.547,0,0,0-2.112,2.112,9.881,9.881,0,0,0-.393,2.652q-.048,1.08-.049,3.045v1.571q0,1.964.049,3.045a10.367,10.367,0,0,0,.393,2.652,3.723,3.723,0,0,0,2.112,2.112,10.34,10.34,0,0,0,2.651.392q1.081.049,3.045.049h1.571q2.014,0,3.045-.049a9.857,9.857,0,0,0,2.652-.392,3.726,3.726,0,0,0,2.112-2.112A10.339,10.339,0,0,0,608.415,298.608Zm-6.163-8.716a5.658,5.658,0,0,1,2.062,2.062,5.616,5.616,0,0,1,0,5.647,5.658,5.658,0,0,1-2.062,2.062,5.616,5.616,0,0,1-5.647,0,5.658,5.658,0,0,1-2.063-2.062,5.62,5.62,0,0,1,0-5.647,5.658,5.658,0,0,1,2.063-2.062,5.616,5.616,0,0,1,5.647,0Zm-.221,7.489a3.675,3.675,0,1,0-2.6,1.081A3.547,3.547,0,0,0,602.032,297.381Zm4.223-9.429a1.319,1.319,0,1,0-.933,2.259,1.2,1.2,0,0,0,.908-.393,1.527,1.527,0,0,0,.417-.933A1.276,1.276,0,0,0,606.255,287.952Z" transform="translate(-588.429 -283.778)" fill="#fff"/>
</svg>
