<svg xmlns="http://www.w3.org/2000/svg" width="25.083" height="25.081" viewBox="0 0 25.083 25.081">
  <path id="Caminho_32" data-name="Caminho 32" d="M644.372,289.825a3.059,3.059,0,1,1,2.128-.9A2.9,2.9,0,0,1,644.372,289.825Zm2.576,19.035h-5.207V292.12h5.207Zm19.483,0h-5.207v-8.174a9.027,9.027,0,0,0-.336-2.911,2.356,2.356,0,0,0-2.407-1.512,2.623,2.623,0,0,0-2.519,1.344,6.251,6.251,0,0,0-.56,2.967v8.286H650.25V292.12h4.983v2.3h.056a4.473,4.473,0,0,1,1.792-1.847,5.515,5.515,0,0,1,3.135-.9q3.639,0,5.095,2.3a11.318,11.318,0,0,1,1.12,5.711Z" transform="translate(-641.348 -283.778)" fill="#fff"/>
</svg>
