<svg xmlns="http://www.w3.org/2000/svg" width="18.577" height="18.577" viewBox="0 0 18.577 18.577">
  <path id="Caminho_94" data-name="Caminho 94" d="M643.588,288.256a2.266,2.266,0,1,1,1.576-.664A2.152,2.152,0,0,1,643.588,288.256Zm1.908,14.1h-3.856v-12.4H645.5Zm14.43,0h-3.856V296.3a6.687,6.687,0,0,0-.249-2.156,1.745,1.745,0,0,0-1.783-1.12,1.943,1.943,0,0,0-1.866,1,4.63,4.63,0,0,0-.415,2.2v6.137h-3.815v-12.4h3.691v1.7h.041A3.313,3.313,0,0,1,653,290.288a4.79,4.79,0,0,1,6.1,1.037,8.381,8.381,0,0,1,.83,4.229Z" transform="translate(-641.348 -283.778)" fill="#fff"/>
</svg>
