<svg xmlns="http://www.w3.org/2000/svg" width="30" height="30" viewBox="0 0 30 30">
  <path id="ic_picture_as_pdf_24px" d="M29,2H11A3.009,3.009,0,0,0,8,5V23a3.009,3.009,0,0,0,3,3H29a3.009,3.009,0,0,0,3-3V5A3.009,3.009,0,0,0,29,2ZM16.25,13.25A2.247,2.247,0,0,1,14,15.5H12.5v3H10.25v-9H14a2.247,2.247,0,0,1,2.25,2.25Zm7.5,3A2.247,2.247,0,0,1,21.5,18.5H17.75v-9H21.5a2.247,2.247,0,0,1,2.25,2.25Zm6-4.5H27.5v1.5h2.25V15.5H27.5v3H25.25v-9h4.5ZM12.5,13.25H14v-1.5H12.5ZM5,8H2V29a3.009,3.009,0,0,0,3,3H26V29H5Zm15,8.25h1.5v-4.5H20Z" transform="translate(-2 -2)" fill="#fff"/>
</svg>
