<svg id="Grupo_37" data-name="Grupo 37" xmlns="http://www.w3.org/2000/svg" xmlns:xlink="http://www.w3.org/1999/xlink" width="30.435" height="21.305" viewBox="0 0 30.435 21.305">
  <defs>
    <clipPath id="clip-path">
      <rect id="Retângulo_19" data-name="Retângulo 19" width="30.435" height="21.304" fill="#fff"/>
    </clipPath>
  </defs>
  <g id="Grupo_36" data-name="Grupo 36" transform="translate(0 0)" clip-path="url(#clip-path)">
    <path id="Caminho_33" data-name="Caminho 33" d="M30.435,6.679A6.679,6.679,0,0,0,23.756,0H6.679A6.679,6.679,0,0,0,0,6.679v7.947A6.679,6.679,0,0,0,6.679,21.3H23.756a6.679,6.679,0,0,0,6.679-6.679ZM20.391,11.248l-7.658,3.789c-.3.162-1.32-.055-1.32-.4V6.863c0-.346,1.029-.563,1.33-.392l7.329,3.989c.308.175.632.618.32.787" transform="translate(0 0)" fill="#fff"/>
  </g>
</svg>